<?xml version="1.0" standalone="no"?>
<!DOCTYPE svg PUBLIC "-//W3C//DTD SVG 20010904//EN"
 "http://www.w3.org/TR/2001/REC-SVG-20010904/DTD/svg10.dtd">
<svg version="1.0" xmlns="http://www.w3.org/2000/svg"
 width="194.000000pt" height="194.000000pt" viewBox="0 0 194.000000 194.000000"
 preserveAspectRatio="xMidYMid meet">
<metadata>
Created by potrace 1.11, written by Peter Selinger 2001-2013
</metadata>
<g transform="translate(0.000000,194.000000) scale(0.100000,-0.100000)"
fill="#000000" stroke="none">
<path d="M570 1535 l0 -65 -285 0 c-183 0 -285 -4 -285 -10 0 -6 102 -10 285
-10 l285 0 0 -75 0 -75 685 0 685 0 0 150 0 150 -685 0 -685 0 0 -65z"/>
<path d="M570 1045 l0 -65 -285 0 c-183 0 -285 -4 -285 -10 0 -6 102 -10 285
-10 l285 0 0 -75 0 -75 685 0 685 0 0 150 0 150 -685 0 -685 0 0 -65z"/>
<path d="M570 555 l0 -65 -285 0 c-183 0 -285 -4 -285 -10 0 -6 102 -10 285
-10 l285 0 0 -75 0 -75 685 0 685 0 0 150 0 150 -685 0 -685 0 0 -65z"/>
</g>
</svg>
