<?xml version="1.0" standalone="no"?>
<!DOCTYPE svg PUBLIC "-//W3C//DTD SVG 20010904//EN"
 "http://www.w3.org/TR/2001/REC-SVG-20010904/DTD/svg10.dtd">
<svg version="1.0" xmlns="http://www.w3.org/2000/svg"
 width="16.000000pt" height="16.000000pt" viewBox="0 0 16.000000 16.000000"
 preserveAspectRatio="xMidYMid meet">
<metadata>
Created by potrace 1.11, written by Peter Selinger 2001-2013
</metadata>
<g transform="translate(0.000000,16.000000) scale(0.006154,-0.006154)"
fill="#000000" stroke="none">
<path d="M309 1783 c-2 -523 1 -730 12 -777 34 -148 129 -253 274 -306 85 -32
242 -31 336 0 144 48 222 126 274 275 16 45 18 98 20 503 l1 452 -106 0 -105
0 -1 -417 c0 -230 -3 -432 -6 -449 -15 -84 -90 -166 -167 -181 -126 -24 -231
11 -282 93 -41 67 -45 117 -44 547 l0 407 -102 0 -103 0 -1 -147z"/>
<path d="M1505 1314 l0 -616 285 4 285 3 66 31 c81 38 133 90 168 163 36 77
37 203 3 273 -29 59 -82 112 -140 142 l-44 23 31 12 c41 18 98 82 123 139 16
38 19 62 16 127 -9 159 -93 259 -253 301 -35 10 -123 14 -295 14 l-245 0 0
-616z m512 404 c47 -31 73 -80 73 -138 0 -58 -26 -107 -73 -138 -38 -25 -49
-27 -174 -30 l-133 -4 2 172 1 172 132 -4 c123 -3 134 -5 172 -30z m18 -510
c83 -43 115 -152 70 -239 -20 -38 -79 -77 -130 -85 -34 -5 -173 -8 -241 -5
-20 1 -20 6 -22 176 l-1 174 82 3 c111 4 206 -6 242 -24z"/>
</g>
</svg>
