<svg
 xmlns="http://www.w3.org/2000/svg"
 xmlns:xlink="http://www.w3.org/1999/xlink"
 width="315px" height="29px">
<path fill-rule="evenodd"  fill="rgb(59, 59, 59)"
 d="M314.269,27.910 L309.102,27.910 L303.441,17.272 L300.097,17.272 L300.097,27.910 L295.500,27.910 L295.500,0.972 L305.834,0.972 C311.040,0.972 314.269,4.582 314.269,9.141 C314.269,12.978 311.951,15.904 308.190,16.816 L314.269,27.910 ZM309.634,9.141 C309.634,6.633 307.810,5.000 304.999,5.000 L300.097,5.000 L300.097,13.244 L304.999,13.244 C307.810,13.244 309.634,11.611 309.634,9.141 ZM273.384,0.972 L290.026,0.972 L290.026,5.228 L277.944,5.228 L277.944,12.370 L288.886,12.370 L288.886,16.512 L277.944,16.512 L277.944,23.655 L290.026,23.655 L290.026,27.910 L273.384,27.910 L273.384,0.972 ZM255.448,27.910 L245.949,27.910 L245.949,0.972 L255.486,0.972 C262.819,0.972 268.594,5.835 268.594,14.498 C268.594,23.123 262.743,27.910 255.448,27.910 ZM255.334,5.152 L250.508,5.152 L250.508,23.731 L255.296,23.731 C259.969,23.731 263.844,20.729 263.844,14.498 C263.844,8.191 260.007,5.152 255.334,5.152 ZM224.859,0.972 L229.419,0.972 L229.419,23.579 L241.767,23.579 L241.767,27.910 L224.859,27.910 L224.859,0.972 ZM213.764,0.972 L218.399,0.972 L218.399,27.910 L213.764,27.910 L213.764,0.972 ZM197.536,28.480 C191.913,28.480 187.506,25.023 187.506,18.526 L187.506,0.972 L192.027,0.972 L192.027,18.260 C192.027,22.059 194.117,24.149 197.536,24.149 C200.994,24.149 203.045,22.059 203.045,18.260 L203.045,0.972 L207.605,0.972 L207.605,18.526 C207.605,25.023 203.197,28.480 197.536,28.480 ZM174.698,27.910 L164.744,27.910 L164.744,0.972 L174.015,0.972 C179.182,0.972 182.221,4.012 182.221,8.229 C182.221,11.079 180.550,13.206 178.232,14.042 C181.081,14.802 183.057,17.272 183.057,20.463 C183.057,24.795 179.714,27.910 174.698,27.910 ZM173.293,4.848 L169.265,4.848 L169.265,12.370 L173.407,12.370 C176.066,12.370 177.662,10.851 177.662,8.609 C177.662,6.329 176.066,4.848 173.293,4.848 ZM174.053,16.208 L169.265,16.208 L169.265,24.035 L173.901,24.035 C176.636,24.035 178.422,22.553 178.422,20.159 C178.422,17.842 176.864,16.208 174.053,16.208 ZM140.233,7.507 L140.233,27.910 L135.674,27.910 L135.674,0.972 L141.487,0.972 L153.721,20.083 L153.721,0.972 L158.281,0.972 L158.281,27.910 L153.531,27.910 L140.233,7.507 ZM124.538,21.147 L113.139,21.147 L110.632,27.910 L105.806,27.910 L116.293,0.972 L121.574,0.972 L132.061,27.910 L127.083,27.910 L124.538,21.147 ZM118.838,5.911 L114.735,16.930 L122.942,16.930 L118.838,5.911 ZM96.228,27.910 L86.274,27.910 L86.274,0.972 L95.544,0.972 C100.712,0.972 103.751,4.012 103.751,8.229 C103.751,11.079 102.079,13.206 99.762,14.042 C102.611,14.802 104.587,17.272 104.587,20.463 C104.587,24.795 101.244,27.910 96.228,27.910 ZM94.823,4.848 L90.795,4.848 L90.795,12.370 L94.937,12.370 C97.596,12.370 99.192,10.851 99.192,8.609 C99.192,6.329 97.596,4.848 94.823,4.848 ZM95.582,16.208 L90.795,16.208 L90.795,24.035 L95.430,24.035 C98.166,24.035 99.952,22.553 99.952,20.159 C99.952,17.842 98.394,16.208 95.582,16.208 ZM76.240,27.910 L70.579,17.272 L67.235,17.272 L67.235,27.910 L62.638,27.910 L62.638,0.972 L72.972,0.972 C78.178,0.972 81.407,4.582 81.407,9.141 C81.407,12.978 79.090,15.904 75.328,16.816 L81.407,27.910 L76.240,27.910 ZM76.772,9.141 C76.772,6.633 74.948,5.000 72.137,5.000 L67.235,5.000 L67.235,13.244 L72.137,13.244 C74.948,13.244 76.772,11.611 76.772,9.141 ZM46.411,28.480 C40.787,28.480 36.380,25.023 36.380,18.526 L36.380,0.972 L40.901,0.972 L40.901,18.260 C40.901,22.059 42.991,24.149 46.411,24.149 C49.868,24.149 51.920,22.059 51.920,18.260 L51.920,0.972 L56.479,0.972 L56.479,18.526 C56.479,25.023 52.072,28.480 46.411,28.480 ZM22.280,1.276 L28.850,1.276 L28.850,2.956 L24.080,2.956 L24.080,5.775 L28.400,5.775 L28.400,7.410 L24.080,7.410 L24.080,10.230 L28.850,10.230 L28.850,11.910 L22.280,11.910 L22.280,1.276 ZM17.915,7.365 L12.920,7.365 L12.920,11.910 L11.120,11.910 L11.120,1.276 L12.920,1.276 L12.920,5.670 L17.915,5.670 L17.915,1.276 L19.730,1.276 L19.730,11.910 L17.915,11.910 L17.915,7.365 ZM6.185,11.910 L4.385,11.910 L4.385,2.971 L0.935,2.971 L0.935,1.276 L9.650,1.276 L9.650,2.971 L6.185,2.971 L6.185,11.910 Z"/>
</svg>
